<svg width="792" height="246" viewBox="0 0 792 246" fill="none" xmlns="http://www.w3.org/2000/svg">
<path d="M64.3558 133.383C48.8416 139.948 33.2446 144.533 16.5775 143.259C10.9977 142.833 5.52283 141.033 0 139.861C0.08258 139.39 0.165161 138.919 0.247734 138.448C3.52402 138.757 6.79467 139.241 10.0776 139.347C26.076 139.867 40.9723 135.3 55.33 128.879C76.4191 119.447 94.863 106.184 110.27 88.945C121.07 76.8601 129.252 63.3153 131.405 46.8021C132.936 35.0585 123.239 23.203 109.522 20.402C97.4344 17.9336 85.559 19.5191 73.8028 22.6685C72.5901 22.9933 71.3561 23.2387 70.132 23.5209C69.9682 22.9296 69.8043 22.3383 69.6405 21.747C79.6637 18.9583 89.5444 15.268 99.7533 13.6545C108.56 12.2626 117.928 12.0324 126.719 13.4002C147.935 16.7015 155.439 33.2888 149.676 52.6932C145.086 68.143 136.086 80.6831 124.662 91.8148C106.997 109.029 86.9983 122.779 64.3558 133.383Z" fill="#589AED"/>
<path d="M428.639 79.2978C419.439 70.6249 414.667 60.7175 417.447 48.1745C419.99 36.6964 430.17 27.0122 441.289 25.3544C454.55 23.3771 466.143 28.8183 472.609 40.0558C478.759 50.7422 477.985 63.6464 469.992 73.2234C464.722 79.5371 459.038 85.3994 459.114 94.4037C459.12 95.0245 458.006 95.655 457.412 96.2809C456.91 95.5639 455.995 94.8581 455.975 94.1282C455.854 89.6355 455.865 85.1351 456.012 80.6432C456.04 79.8022 456.725 78.8268 457.378 78.1901C459.844 75.7823 462.538 73.6003 464.925 71.1203C467.285 68.6685 467.804 65.6464 465.333 63.0906C463.095 60.7757 460.199 60.6472 457.777 63.053C455.159 65.652 455.702 68.4464 457.9 71.0465C458.3 71.5198 459.065 71.6845 459.52 71.9191C456.802 74.2189 453.853 75.6394 452.756 77.9422C451.643 80.277 452.341 83.4831 452.283 86.3083C452.246 88.1397 452.496 90.0078 452.209 91.7939C451.96 93.3422 451.137 94.7983 450.568 96.295C449.92 94.8743 448.797 93.4811 448.713 92.0278C448.464 87.7116 448.624 83.3719 448.624 79.0413C448.623 74.5442 448.382 70.0287 448.724 65.5578C448.898 63.2905 449.781 60.8981 450.958 58.9299C452.659 56.0844 453.159 53.1299 450.287 51.5351C448.43 50.5036 444.936 50.5876 443.134 51.7106C440.346 53.4491 441.068 56.4372 442.758 59.2011C443.874 61.0251 444.887 63.2524 444.941 65.3253C445.176 74.3134 445.113 83.3122 444.965 92.304C444.943 93.6436 443.892 94.9662 443.317 96.2967C442.696 95.0371 441.657 93.8152 441.54 92.5101C441.271 89.5362 441.456 86.5216 441.454 83.5235C441.449 76.1786 441.162 75.7423 434.284 73.0985C435.077 72.0234 436.365 71.0686 436.406 70.0621C436.505 67.6833 436.856 64.2955 435.527 63.1554C434.118 61.9468 430.057 61.9203 428.685 63.1233C427.357 64.2887 426.869 68.6395 427.96 69.8884C430.486 72.7782 430.817 78.1482 436.253 78.2521C436.675 78.2601 437.402 79.8129 437.42 80.6598C437.529 85.7894 437.474 90.9225 437.474 96.8304C432.602 95.0268 434.554 90.9842 433.339 88.4532C431.907 85.4683 430.356 82.5407 428.639 79.2978Z" fill="#5C9CED"/>
<path d="M105.347 22.4753C102.515 22.4462 99.6124 22.0016 96.8639 22.4672C89.1694 23.7705 89.3866 24.3098 89.403 30.7935C89.4623 54.2918 89.3778 77.7906 89.4894 101.288C89.5029 104.141 88.9366 106.085 86.497 107.9C68.8646 121.024 49.7409 131.019 28.2957 136.276C27.3613 136.505 26.3219 136.306 23.871 136.306C29.5788 134.183 34.0622 132.738 38.3553 130.858C42.7386 128.938 46.9355 126.593 51.2126 124.431C51.8013 124.134 52.3734 123.802 52.9675 123.516C61.7265 119.296 66.3783 113.717 65.7785 102.602C64.5857 80.5016 65.4453 58.2911 65.3991 36.126C65.3937 33.5092 65.0262 30.8932 64.796 27.8769C77.5518 22.9609 90.9925 20.4639 105.303 21.8449C105.58 22.1835 105.347 22.4753 105.347 22.4753Z" fill="#589AED"/>
<path d="M324.963 90.3969C324.949 96.8513 324.949 102.81 324.949 110.443C343.507 103.539 355.234 89.9882 368.698 76.1717C364.101 75.3332 360.896 74.7486 357.691 74.164C357.72 73.8695 357.748 73.575 357.777 73.2805C368.089 73.2805 378.401 73.2805 389.326 73.2805C369.214 81.446 354.589 96.6485 336.287 108.374C356.241 121.398 370.757 140.052 392.089 148.742C382.54 152.224 369.287 149.41 360.067 141.231C351.47 133.605 343.169 125.645 334.612 117.973C332.092 115.714 329.14 113.937 326.386 111.94C325.878 112.159 325.371 112.378 324.863 112.596C324.863 115.793 324.82 118.99 324.873 122.186C324.969 128.016 325.235 133.846 325.217 139.675C325.202 144.815 326.914 148.101 332.686 147.842C333.162 147.821 333.672 148.018 334.123 148.213C334.366 148.318 334.518 148.635 334.981 149.166C325.207 149.166 315.696 149.166 306.177 149.166C306.191 148.98 306.135 148.471 306.246 148.432C314.205 145.604 314.4 145.556 314.471 136.888C314.605 120.56 314.615 104.23 314.52 87.9019C314.482 81.5231 315.624 74.1696 305.833 73.217C315.151 73.217 324.47 73.217 333.903 73.217C333.74 73.6985 333.709 74.1404 333.556 74.1878C325.348 76.7317 325.347 76.7282 324.963 90.3969Z" fill="#5E9DEE"/>
<path d="M163.121 134.734C165.026 140.21 166.617 145.377 168.486 150.442C170.571 156.096 174.927 158.947 180.904 159.437C178.096 165.299 170.986 168.103 162.855 167.902C147.458 167.521 145.139 158.91 141.584 148.067C137.962 137.02 135.154 125.706 131.944 114.522C130.073 108.002 126.554 102.61 120.572 98.7204C123.55 95.8917 126.351 93.0788 129.355 90.5006C129.985 89.9591 131.411 90.0306 132.378 90.2422C143.973 92.778 151.624 99.81 155.411 110.98C158.042 118.738 160.432 126.577 163.121 134.734Z" fill="#589AED"/>
<path d="M263.379 137.135C263.428 142.545 263.555 147.432 269.9 149.071C262.308 149.071 254.715 149.071 247.123 149.071C254.719 147.914 253.668 141.928 253.785 136.806C253.944 129.816 253.884 122.817 253.71 115.827C253.609 111.78 252.237 107.318 248.067 106.821C243.218 106.244 238.108 107.596 233.164 108.425C232.629 108.515 232.147 110.69 232.143 111.9C232.116 120.727 232.206 129.555 232.282 138.383C232.326 143.456 232.348 148.578 239.571 149.004C231.756 149.004 223.941 149.004 216.126 149.004C223.235 147.951 222.532 142.459 222.584 137.518C222.661 130.192 222.549 122.864 222.585 115.538C222.608 110.631 222.399 105.947 214.177 105.464C220.141 102.911 224.465 101.06 229.204 99.0309C230.092 101.585 230.878 103.847 231.675 106.138C250.306 96.6708 255.234 96.8353 261.895 107.078C265.265 105.013 268.465 102.567 272.04 100.951C283.938 95.5726 293.765 101.619 294.273 114.606C294.572 122.258 294.283 129.931 294.479 137.588C294.677 145.305 294.972 145.604 301.605 149.095C293.319 149.095 285.726 149.095 278.133 149.095C285.825 148.323 284.677 142.333 284.913 137.383C285.214 131.069 285.539 124.719 285.206 118.419C284.625 107.404 278.703 103.458 268.01 106.544C264.5 107.557 262.265 108.743 262.929 113.716C263.936 121.251 263.301 129.005 263.379 137.135Z" fill="#5E9DEE"/>
<path d="M742.98 80.3215C740.913 77.6304 738.93 75.359 737.058 73.2142C741.845 71.9685 747.74 70.4344 753.338 68.9777C753.338 81.3546 753.338 93.5172 753.338 105.493C756.248 103.94 759.441 101.84 762.918 100.453C773.579 96.2 783.264 101.457 784.572 112.815C785.558 121.37 785.147 130.088 785.3 138.735C785.383 143.431 785.549 147.997 791.779 149.064C784.188 149.064 776.598 149.064 769.008 149.064C776.805 147.507 775.536 141.288 775.638 135.877C775.753 129.72 775.704 123.558 775.632 117.4C775.578 112.769 774.085 108.73 769.517 106.846C764.089 104.607 758.7 105.548 753.701 108.309C752.912 108.745 752.558 110.577 752.569 111.757C752.655 120.743 752.945 129.726 753.041 138.712C753.093 143.644 753.199 148.369 759.929 149.031C752.307 149.031 744.685 149.031 735.538 149.031C744.963 146.668 743.428 139.925 743.436 134.156C743.463 116.352 743.209 98.5462 742.98 80.3215Z" fill="#5E9DEE"/>
<path d="M506.596 99.3552C514.957 101.332 518.969 106.311 519.268 115.236C519.518 122.718 519.314 130.215 519.47 137.702C519.57 142.501 519.6 147.503 525.887 149.134C518.3 149.134 510.713 149.134 503.125 149.134C510.641 148.138 509.776 142.338 509.869 137.315C510.001 130.175 509.975 123.027 509.774 115.889C509.651 111.541 507.554 107.381 503.307 106.861C498.445 106.266 493.324 107.481 488.377 108.288C487.759 108.389 487.167 110.793 487.158 112.135C487.095 120.622 487.157 129.112 487.266 137.599C487.332 142.811 486.798 148.519 494.573 149.102C486.763 149.102 478.953 149.102 471.143 149.102C479.302 147.175 477.466 140.432 477.662 134.84C477.883 128.526 477.684 122.194 477.567 115.872C477.477 111 478.068 105.616 470.801 104.728C475.164 102.887 479.528 101.045 484.22 99.0649C485.137 101.662 485.929 103.906 486.851 106.517C492.871 102.269 498.624 98.1859 506.596 99.3552Z" fill="#5E9DEE"/>
<path d="M578.693 150.262C565.023 146.14 558.875 135.997 561.343 122.239C563.861 108.204 575.558 98.3771 588.894 99.0931C600.236 99.7021 607.911 105.669 610.381 115.795C613.297 127.754 608.263 140.456 598.249 146.656C592.309 150.333 585.913 151.354 578.693 150.262ZM596.308 108.141C588.726 98.7079 577.939 99.0619 573.699 109.343C569.378 119.822 569.915 130.551 575.26 140.683C577.905 145.697 582.103 148.937 588.18 148.319C594.252 147.702 597.671 143.681 599.314 138.254C602.377 128.14 601.727 118.237 596.308 108.141Z" fill="#5E9DEE"/>
<path d="M171.963 108.804C173.177 102.272 178.841 100.996 184.082 99.689C187.058 98.9468 190.397 99.1979 193.51 99.5523C200.884 100.392 204.853 105.205 205.105 113.907C205.307 120.883 204.953 127.875 204.851 134.861C204.759 141.14 204.026 147.793 214.128 148.363C205.082 152.233 200.352 151.017 196.628 145.129C191.646 147.018 186.934 149.639 181.918 150.518C173.466 152.001 167.697 146.283 168.438 138.258C168.882 133.462 171.865 130.669 176.101 129.448C179.895 128.355 183.904 127.993 187.828 127.371C190.256 126.987 192.703 126.721 195.32 126.378C195.32 121.609 195.649 117.137 195.222 112.739C194.845 108.857 192.165 106.016 188.229 106.251C182.875 106.571 177.58 107.872 171.963 108.804ZM195.162 142.093C195.367 137.917 195.572 133.742 195.813 128.838C191.247 129.433 187.653 129.719 184.137 130.405C179.718 131.268 177.707 134.066 178.27 138.655C178.831 143.223 181.753 144.936 185.869 144.573C188.764 144.318 191.592 143.297 195.162 142.093Z" fill="#609FEE"/>
<path d="M65.4356 163.945C65.4273 155.323 65.2969 147.155 65.536 138.998C65.5834 137.379 66.6241 135.117 67.9249 134.312C79.8264 126.946 91.8834 119.831 103.916 112.678C104.266 112.47 104.848 112.652 106.064 113.566C101.738 117.073 97.619 120.89 93.0065 123.968C90.2619 125.799 89.3056 127.672 89.3644 130.834C89.538 140.161 89.1466 149.505 89.5441 158.818C89.7435 163.493 87.7869 165.618 83.6538 166.167C79.24 166.754 74.7746 167.288 70.3414 167.219C68.6945 167.194 67.075 165.394 65.4356 163.945Z" fill="#589AED"/>
<path d="M548.395 143.852C551.071 145.912 553.683 147.538 556.114 149.051C548.429 149.051 540.214 149.051 531.912 149.051C533.75 147.607 536.14 146.534 537.166 144.699C538.223 142.808 538.198 140.176 538.221 137.865C538.321 127.895 538.264 117.923 538.264 107.523C535.919 107.309 533.688 107.104 531.191 106.876C531.482 103.272 531.773 100.258 536.655 100.392C537.546 100.416 538.757 97.6869 539.406 96.0633C541.852 89.9514 543.319 83.2838 546.665 77.7364C551.122 70.3465 558.558 67.5186 567.92 68.7096C567.392 71.3955 566.909 73.8553 566.35 76.6959C563.239 75.9106 560.722 75.1526 558.154 74.6518C552.23 73.4963 548.983 75.5197 548.315 81.4046C547.61 87.6149 547.544 93.8979 547.177 100.566C551.006 100.566 553.96 100.566 557.134 100.566C557.569 103.287 559.773 106.191 555.414 107.046C553.042 107.511 550.505 107.129 548.331 107.129C548.331 119.561 548.331 131.49 548.395 143.852Z" fill="#5E9DEE"/>
<path d="M629.445 108.555C629.345 116.536 629.255 124.035 629.335 131.533C629.462 143.53 634.846 147.389 646.34 143.86C646.913 143.684 647.532 143.66 648.37 143.528C644.573 149.185 637.763 151.738 630.721 150.368C624.719 149.199 620.977 145.678 620.381 138.593C619.7 130.498 620.145 122.308 620.107 114.16C620.096 112.024 620.105 109.888 620.105 107.322C617.609 107.069 615.213 106.825 612.671 106.567C618.388 101.22 623.887 96.0778 629.531 90.7989C629.531 93.8006 629.531 96.8514 629.531 100.518C635.633 100.518 641.531 100.518 647.75 100.518C647.75 102.886 647.75 104.644 647.75 107.029C643.573 107.029 639.327 106.926 635.09 107.077C633.227 107.143 631.383 107.724 629.445 108.555Z" fill="#609FEE"/>
<path d="M651.835 137.736C648.955 127.097 649.588 117.229 655.742 108.242C661.335 100.074 671.814 96.8229 680.937 100.557C683.438 101.58 686.021 103.394 687.528 105.566C689.001 107.689 689.149 110.732 689.879 113.371C687.699 113.742 685.524 114.396 683.339 114.433C675.548 114.563 667.753 114.483 659.55 114.483C658.374 123.835 658.044 132.693 665.099 139.521C672.449 146.636 680.968 143.992 690.39 140.212C685.23 148.168 678.614 150.74 671.058 150.721C662.159 150.698 655.38 146.789 651.835 137.736ZM668.593 101.547C663.81 103.288 661.21 106.711 660.184 111.873C667.249 111.873 673.768 111.873 680.28 111.873C680.22 104.164 677.104 101.289 668.593 101.547Z" fill="#5E9DEE"/>
<path d="M693.741 130.87C692.712 109.882 708.195 96.1317 728.553 99.4829C734.411 100.447 731.043 104.744 732.059 108.338C729.328 107.066 727.317 106.051 725.247 105.178C712.694 99.8819 704.38 104.211 703.022 117.661C702.497 122.854 703.579 128.708 705.614 133.552C709.32 142.372 718.627 145.695 727.765 142.639C729.298 142.127 730.798 141.516 732.467 140.893C728.89 149.63 714.843 153.438 705.4 148.392C698.555 144.735 695.15 138.701 693.741 130.87Z" fill="#5E9DEE"/>
<path d="M133.9 85.7962C142.25 74.5956 150.069 63.1725 152.676 48.9865C154.369 39.7794 153.748 31.1221 148.508 22.6956C148.569 22.2489 148.754 22.0912 148.754 22.0912C161.246 30.4469 163.96 42.3167 162.065 54.9038C159.673 70.7869 149.562 80.4774 134.718 86.2393C134.216 86.113 133.9 85.7962 133.9 85.7962Z" fill="#589AED"/>
<path d="M454.348 108.467C455.737 109.714 457.194 110.54 458.995 111.56C458.995 120.919 458.995 130.665 458.995 141.085C455.932 139.986 453.046 139.277 450.53 137.893C449.461 137.305 448.67 135.327 448.61 133.944C448.387 128.803 448.466 123.646 448.538 118.496C448.59 114.789 447.182 110.464 452.93 108.898C452.75 108.432 452.571 107.966 452.392 107.499C446.547 107.499 440.701 107.499 434.615 107.499C434.615 104.421 434.615 102.492 434.615 100.234C442.643 100.234 450.528 100.234 458.817 100.234C458.817 102.293 458.817 104.175 458.817 105.998C457.323 106.694 455.869 107.37 454.348 108.467Z" fill="#609FEE"/>
<path d="M648.011 219.602C646.661 211.006 650.24 206.958 658.503 207.206C661.158 207.285 663.826 207.316 666.458 207.628C667.877 207.796 669.23 208.511 670.613 208.979C669.458 209.832 668.302 210.684 666.747 211.832C670.811 225.452 659.899 224.995 650.378 225.923C650.608 226.469 650.839 227.014 651.069 227.56C654.2 228.061 657.323 228.616 660.463 229.051C664.714 229.64 668.315 230.922 668.605 236.064C668.856 240.525 666.093 244.119 660.857 244.791C657.529 245.218 653.809 244.938 650.653 243.85C645.049 241.919 644.424 236.413 649.153 230.412C648.065 229.8 646.903 229.146 646.041 228.661C646.508 225.231 652.399 223.833 648.011 219.602ZM653.413 231.606C650.396 232.803 648.241 235.473 649.962 238.032C651.391 240.158 654.998 241.821 657.644 241.827C659.998 241.833 663.191 239.807 664.499 237.726C666.053 235.255 663.854 233.088 661.068 232.486C658.822 232 656.498 231.879 653.413 231.606ZM652.487 212.056C652.047 213.105 651.354 214.122 651.213 215.211C650.678 219.335 652.98 222.12 657.061 222.134C660.833 222.148 663.519 220.632 663.586 216.319C663.649 212.232 661.27 210.041 656.852 210.375C655.583 210.47 654.356 211.111 652.487 212.056Z" fill="#141494"/>
<path d="M425.101 244.374C422.26 244.704 419.75 245.362 417.352 245.077C408.351 244.01 405.825 238.486 410.79 230.638C405.39 227.209 410.85 225.586 412.193 223.177C411.715 223.162 411.237 223.146 410.758 223.131C410.758 219.291 409.744 215.072 411.005 211.704C412.743 207.059 417.618 206.882 422.148 207.272C424.791 207.5 427.463 207.397 430.107 207.618C431.167 207.706 432.189 208.265 433.228 208.61C433.196 209.03 433.163 209.449 433.131 209.869C431.84 210.308 430.55 210.746 428.888 211.31C432.786 225.209 422.407 225.279 412.464 225.788C412.752 226.394 413.04 227 413.328 227.607C416.306 228.068 419.281 228.553 422.264 228.985C425.98 229.524 429.641 230.168 430.648 234.643C431.697 239.303 429.441 242.26 425.101 244.374ZM418.284 242.052C420.226 241.772 422.344 241.886 424.069 241.119C426.723 239.938 428.235 237.738 426.609 234.709C425.087 231.873 415.858 230.606 413.49 232.807C409.924 236.122 411.646 240.015 418.284 242.052ZM414.159 212.83C412.798 216.234 412.474 219.912 416.447 221.193C418.82 221.958 422.734 221.389 424.401 219.795C425.705 218.548 425.638 214.06 424.375 212.327C422.036 209.118 418.276 209.659 414.998 211.826C414.861 211.917 414.755 212.054 414.159 212.83Z" fill="#141494"/>
<path d="M557.94 225.095C556.639 220.94 555.498 217.152 553.953 212.021C551.836 219.044 550.208 224.756 548.339 230.388C547.953 231.549 546.666 232.411 545.794 233.41C544.874 232.52 543.454 231.787 543.113 230.713C540.756 223.296 538.625 215.808 536.422 208.343C536.796 207.986 537.171 207.629 537.546 207.273C538.578 208.298 540.14 209.147 540.549 210.379C542.31 215.668 543.731 221.07 546.175 226.397C547.687 221.393 549.07 216.344 550.793 211.415C551.299 209.965 552.771 208.853 553.8 207.586C554.953 208.911 556.613 210.055 557.165 211.596C558.895 216.427 560.207 221.409 561.851 226.899C565.62 220.544 565.099 212.669 569.124 207.076C569.921 207.441 570.717 207.805 571.514 208.169C569.19 216.071 566.903 223.984 564.477 231.854C564.272 232.518 563.068 233.383 562.455 233.293C561.545 233.16 560.331 232.437 559.987 231.644C559.134 229.681 558.702 227.535 557.94 225.095Z" fill="#141494"/>
<path d="M473.77 230.063C474.46 231.224 474.94 232.074 475.419 232.923C475.109 233.303 474.8 233.684 474.491 234.064C472.888 232.914 470.823 232.083 469.766 230.555C466.375 225.655 463.357 220.497 458.61 215.022C457.631 217.813 456.336 220.542 455.769 223.414C455.294 225.815 455.856 228.405 455.583 230.869C455.467 231.91 454.388 232.844 453.746 233.827C453.225 233.609 452.704 233.39 452.183 233.171C452.183 222.106 452.147 211.04 452.26 199.976C452.268 199.193 453.378 198.421 453.976 197.644C454.541 198.454 455.559 199.247 455.593 200.079C455.761 204.215 455.67 208.363 455.67 213.269C463.018 208.639 466.227 200.015 473.905 197C474.307 197.428 474.709 197.856 475.111 198.284C470.964 202.806 466.816 207.328 462.501 212.032C466.196 217.952 469.877 223.852 473.77 230.063Z" fill="#0F0F92"/>
<path d="M250.441 233.346C250.441 224.572 250.441 216.291 250.441 206.476C252.63 208.33 253.851 209.364 255.115 210.434C261.883 205.905 268.228 206.045 272.667 211.028C277.065 215.963 277.157 224.832 272.862 229.889C268.548 234.969 262.261 235.261 254.571 230.686C254.264 235.234 253.99 239.742 253.539 244.233C253.523 244.399 251.787 244.392 250.441 244.499C250.441 240.726 250.441 237.282 250.441 233.346ZM256.615 227.624C258.293 228.602 259.862 230.067 261.668 230.468C267.131 231.68 271.601 227.98 272.292 222.062C273.018 215.851 269.524 210.797 264.208 210.368C258.677 209.922 254.468 213.815 254.507 219.847C254.522 222.221 255.586 224.589 256.615 227.624Z" fill="#141494"/>
<path d="M337.929 214.099C343.094 206.137 349.141 205.086 358.446 210.632C358.446 206.594 358.347 202.838 358.522 199.096C358.561 198.248 359.55 197.444 360.102 196.62C360.823 197.468 362.161 198.309 362.171 199.166C362.312 210.45 362.265 221.737 362.265 234.484C360.118 232.85 358.883 231.91 357.453 230.821C351.278 234.817 346.203 235.352 341.686 231.628C336.068 226.997 335.591 220.961 337.929 214.099ZM340.405 220.846C341.075 226.961 343.308 229.904 347.796 230.585C353.14 231.396 357.351 228.083 358.226 222.38C359.149 216.366 355.682 210.996 350.49 210.395C344.81 209.739 341.294 213.095 340.405 220.846Z" fill="#181896"/>
<path d="M621.463 208.311C626.873 206.257 631.534 206.758 636.295 211.323C636.295 206.012 636.295 201.505 636.295 196.999C636.892 196.757 637.489 196.514 638.086 196.272C638.813 197.468 640.155 198.654 640.173 199.86C640.336 210.82 640.269 221.783 640.269 234.457C638.049 232.693 636.779 231.685 635.521 230.685C628.497 235.611 621.349 235.068 617.12 229.003C612.448 222.301 614.12 213.693 621.463 208.311ZM634.11 227.515C634.84 225.514 635.984 223.561 636.222 221.503C636.912 215.544 633.27 210.739 628.109 210.383C623.771 210.083 620.776 211.988 619.166 216.038C617.292 220.755 618.546 226.79 622.222 229.144C626.149 231.657 630.065 231.435 634.11 227.515Z" fill="#181896"/>
<path d="M206.481 217.093C204.686 217.093 203.374 217.093 201.78 217.093C201.78 221.453 201.78 225.548 201.78 229.886C207.577 230.307 213.521 230.733 219.456 231.247C219.51 231.252 219.463 232.431 219.463 233.245C212.253 233.245 205.323 233.245 198.073 233.245C198.073 221.48 198.073 209.784 198.073 198.132C209.327 196.342 218.583 197.312 219.334 200.625C213.485 200.625 207.707 200.625 201.714 200.625C201.714 205.084 201.714 209.194 201.714 214.172C207.22 214.172 212.672 214.172 218.125 214.172C218.155 214.747 218.186 215.321 218.216 215.895C214.858 218.41 210.68 216.499 206.481 217.093Z" fill="#1C1C98"/>
<path d="M289.304 218.145C292.512 217.94 295.303 217.779 299.99 217.51C297.684 214.564 296.421 211.36 294.544 210.948C292.097 210.41 289.077 211.866 286.474 212.895C285.03 213.466 283.934 214.917 282.346 215.574C283.105 209.496 286.688 206.942 292.985 207.188C298.278 207.395 301.89 210.39 302.244 215.749C302.625 221.526 302.33 227.347 302.33 234.216C300.35 232.873 299.057 231.996 297.717 231.087C293.724 234.33 288.916 235.627 284.626 232.312C282.62 230.762 281.408 226.976 281.47 224.241C281.563 220.162 285.203 218.768 289.304 218.145ZM294.871 221.007C292.883 221.125 290.5 220.604 289.007 221.525C287.236 222.617 285.772 224.805 285.129 226.822C284.886 227.587 287.442 230.335 288.477 230.206C291.355 229.849 294.456 228.944 296.762 227.276C297.987 226.39 297.745 223.475 298.165 221.476C297.374 221.32 296.582 221.164 294.871 221.007Z" fill="#141494"/>
<path d="M604.801 208.875C609.106 212.05 610.299 216.105 609.873 221.225C603.276 221.225 596.84 221.225 590.184 221.225C589.655 225.491 591.347 228.404 594.681 229.955C598.235 231.608 601.755 231.232 604.66 228.028C605.571 227.024 607.014 226.501 609.088 225.216C606.504 232.859 600.596 235.623 594.046 233.322C587.468 231.011 584.25 222.337 587.16 214.76C589.851 207.752 596.562 205.389 604.801 208.875ZM598 210.303C593.27 210.648 590.553 213.053 589.902 218.104C595.546 218.104 600.865 218.104 606.526 218.104C605.762 213.346 603.514 210.627 598 210.303Z" fill="#0F0F92"/>
<path d="M686.235 234.041C678.22 234.327 672.424 228.015 673.5 218.248C674.321 210.784 679.888 206.456 687.419 207.272C693.935 207.978 697.707 213.416 696.878 221.309C690.471 221.309 684.017 221.309 677.434 221.309C676.879 225.643 678.713 228.529 682.113 230.039C685.712 231.636 689.214 231.111 692.078 227.898C692.946 226.924 694.418 226.489 696.787 225.139C694.633 231.241 691.256 233.413 686.235 234.041ZM682.105 218.354C685.845 218.354 689.584 218.354 693.368 218.354C692.646 212.474 689.954 210.056 684.953 210.315C680.31 210.556 677.662 213.424 677.719 218.354C678.87 218.354 680.023 218.354 682.105 218.354Z" fill="#0F0F92"/>
<path d="M434.533 111.813C437.677 111.007 440.704 110.645 444.525 110.188C444.525 119.18 445.16 127.498 444.106 135.596C443.82 137.793 438.435 139.327 434.416 141.753C434.416 130.829 434.416 121.543 434.533 111.813Z" fill="#5C9CED"/>
<path d="M512.405 210.377C518.778 206.058 525.144 206.161 529.569 210.4C533.901 214.55 534.813 222.457 531.599 227.985C528.645 233.065 522.738 235.241 516.89 233.403C508.034 230.62 505.651 219.211 512.405 210.377ZM517.659 230.268C521.938 231.488 525.77 230.825 528.096 226.782C530.494 222.612 530.787 217.805 527.76 214.109C526.076 212.053 522.183 210.268 519.772 210.757C517.095 211.3 513.756 214.156 512.869 216.745C511.222 221.557 511.736 226.715 517.659 230.268Z" fill="#141494"/>
<path d="M320.656 207.2C327.759 207.761 330.415 210.094 330.891 216.609C331.242 221.408 331.164 226.254 330.958 231.066C330.916 232.039 329.441 232.951 328.627 233.892C328.211 233.657 327.796 233.423 327.381 233.188C327.381 228.228 327.436 223.267 327.364 218.307C327.304 214.095 326.054 210.691 321.064 210.365C316.845 210.09 313.424 212.696 312.883 217.371C312.369 221.806 312.774 226.342 312.474 230.813C312.404 231.849 311.106 232.803 310.374 233.795C309.931 233.517 309.487 233.239 309.044 232.961C309.044 225.485 309 218.008 309.099 210.533C309.112 209.567 309.868 208.61 310.279 207.649C311.237 208.443 312.194 209.237 313.138 210.02C315.183 209.218 317.733 208.218 320.656 207.2Z" fill="#0F0F92"/>
<path d="M390.407 207.444C399.476 206.905 402.747 209.77 403.044 218.332C403.188 222.485 403.228 226.657 402.963 230.798C402.895 231.85 401.477 232.814 400.68 233.819C400.249 233.54 399.817 233.262 399.386 232.983C399.386 228.18 399.46 223.376 399.367 218.575C399.259 213.016 397.172 210.477 392.834 210.349C388.492 210.22 385.125 213.118 384.754 218.086C384.386 223.025 384.674 228.013 384.674 232.98C384.197 233.254 383.719 233.527 383.242 233.801C382.51 232.788 381.173 231.793 381.143 230.759C380.951 224.112 380.98 217.456 381.109 210.806C381.13 209.74 382.018 208.691 382.506 207.635C383.424 208.485 384.342 209.335 385.36 210.278C386.659 209.512 388.347 208.516 390.407 207.444Z" fill="#0F0F92"/>
<path d="M482.548 233.393C481.629 232.998 480.769 232.613 480.763 232.216C480.664 224.745 480.623 217.272 480.711 209.801C480.72 209.075 481.649 208.359 482.151 207.639C483.137 208.468 484.124 209.297 484.88 209.932C487.2 209.078 489.714 207.587 492.359 207.296C498.391 206.634 502.248 210.036 502.54 216.134C502.81 221.743 502.598 227.376 502.598 232.998C502.168 233.266 501.739 233.534 501.309 233.802C500.601 232.786 499.343 231.803 499.281 230.75C499.038 226.612 499.303 222.447 499.133 218.302C498.908 212.818 496.663 210.343 492.293 210.361C487.956 210.378 484.773 213.475 484.513 218.37C484.284 222.676 484.502 227.005 484.361 231.318C484.338 232.025 483.478 232.704 482.548 233.393Z" fill="#141494"/>
<path d="M243.484 233.407C240.316 230.025 237.524 226.645 234.727 223.258C230.803 225.735 231.131 232.857 223.598 233.702C226.818 228.795 229.466 224.758 232.204 220.586C229.541 216.488 226.935 212.477 224.261 208.362C227.741 207.822 227.738 207.824 230.259 211.629C231.615 213.675 232.984 215.712 234.296 217.677C239.137 215.335 238.632 207.837 245.949 207.538C242.85 212.254 240.226 216.247 237.408 220.536C239.747 224.078 242.158 227.623 244.407 231.269C244.676 231.704 244.064 232.683 243.484 233.407Z" fill="#141494"/>
<path d="M437.723 143.66C445.5 138.984 452.203 141.591 459.383 146.967C456.653 148.069 454.004 149.721 451.173 150.139C447.43 150.69 443.487 150.66 439.743 150.111C437.913 149.842 436.339 147.833 434.648 146.611C435.554 145.671 436.46 144.732 437.723 143.66Z" fill="#609FEE"/>
<path d="M576.425 206.43C576.425 202.981 576.425 200.021 576.425 197.061C576.807 196.793 577.189 196.524 577.572 196.255C578.466 197.089 580.124 197.91 580.138 198.758C580.316 209.555 580.321 220.357 580.148 231.155C580.133 232.094 578.552 233.008 577.699 233.933C577.274 233.697 576.849 233.461 576.425 233.225C576.425 224.456 576.425 215.688 576.425 206.43Z" fill="#1C1C98"/>
<path d="M369.634 226.258C369.634 220.791 369.492 215.802 369.736 210.833C369.796 209.598 371.106 208.424 371.842 207.222C372.301 207.467 372.76 207.712 373.219 207.957C373.219 216.212 373.219 224.468 373.219 232.732C369.636 233.284 369.636 233.284 369.634 226.258Z" fill="#1C1C98"/>
<path d="M450.224 4.80728C450.216 7.73856 450.415 10.2627 450.093 12.7184C449.968 13.6747 448.667 14.4767 447.901 15.3489C447.239 14.5237 446.09 13.7454 446.005 12.8648C445.736 10.0593 445.607 7.18549 445.938 4.39899C446.119 2.86938 447.333 1.46231 448.081 0C448.795 1.45761 449.51 2.91519 450.224 4.80728Z" fill="#609FEE"/>
<path d="M497.228 54.9081C498.484 54.9114 499.44 54.6472 500.106 54.9739C501.382 55.5995 502.493 56.5609 503.672 57.3829C502.495 58.0125 501.359 59.0657 500.132 59.1856C497.353 59.4571 494.506 59.474 491.734 59.1683C490.584 59.0415 489.554 57.8255 488.469 57.1049C489.595 56.3884 490.641 55.3304 491.868 55.0413C493.435 54.672 495.148 54.9235 497.228 54.9081Z" fill="#609FEE"/>
<path d="M390.748 55.4595C394.746 55.1773 398.388 54.9119 402.013 55.0539C403.05 55.0945 404.04 56.3158 405.052 56.9957C404.116 57.7491 403.226 59.0711 402.234 59.1518C398.941 59.4197 395.6 59.4036 392.3 59.1744C390.25 59.032 388.685 58.0711 390.748 55.4595Z" fill="#609FEE"/>
<path d="M404.792 18.1701C404.709 16.8996 404.846 15.8811 404.983 14.8626C405.864 15.0299 407.022 14.8982 407.579 15.4145C410.494 18.1167 413.34 20.909 416.005 23.8549C416.541 24.447 416.192 25.8396 416.25 26.8631C415.207 26.7387 413.822 26.9974 413.179 26.4238C410.34 23.8873 407.715 21.1114 404.792 18.1701Z" fill="#609FEE"/>
<path d="M484.802 21.7697C483.036 23.5629 481.601 25.207 479.931 26.5617C479.326 27.0524 478.159 26.8506 477.249 26.9648C477.248 25.9391 476.811 24.5207 477.32 23.9539C479.876 21.1122 482.593 18.3963 485.457 15.8665C486.152 15.2522 487.617 15.509 488.728 15.3653C488.488 16.5212 488.524 17.8497 487.937 18.788C487.257 19.8733 486.029 20.6152 484.802 21.7697Z" fill="#5C9CED"/>
<path d="M105.695 22.0363C107.186 22.1775 108.562 22.4658 109.939 22.7542C109.924 22.9414 109.909 23.1286 109.894 23.3158C108.52 23.2377 107.146 23.1595 105.56 22.7784C105.347 22.4753 105.58 22.1835 105.695 22.0363Z" fill="#589AED"/>
<path d="M111.353 107.315C111.98 106.64 112.608 105.965 113.235 105.29C113.464 105.452 113.693 105.613 113.923 105.775C113.45 106.379 112.978 106.984 112.089 107.581C111.672 107.574 111.353 107.315 111.353 107.315Z" fill="#589AED"/>
<path d="M111.823 107.714C111.357 108.424 110.74 108.993 109.784 109.48C109.444 109.398 109.415 109.366 109.415 109.366C109.88 108.758 110.346 108.15 111.082 107.429C111.353 107.315 111.672 107.574 111.823 107.714Z" fill="#589AED"/>
<path d="M134.356 86.287C133.998 86.6785 133.5 86.8959 133.002 87.1133C133.149 86.7655 133.295 86.4178 133.671 85.9331C133.9 85.7962 134.216 86.113 134.356 86.287Z" fill="#589AED"/>
<path d="M109.459 109.415C109.083 109.832 108.706 110.247 108.28 110.605C108.242 110.638 107.894 110.303 107.69 110.139C108.038 109.896 108.386 109.652 109.074 109.387C109.415 109.366 109.444 109.398 109.459 109.415Z" fill="#589AED"/>
<path d="M148.478 22.3299C148.154 22.2291 147.922 22.0473 147.69 21.8656C147.963 21.8086 148.237 21.7517 148.632 21.893C148.754 22.0912 148.569 22.2489 148.478 22.3299Z" fill="#589AED"/>
</svg>
