<svg width="181" height="156" viewBox="0 0 181 156" fill="none" xmlns="http://www.w3.org/2000/svg">
<path d="M64.3558 121.383C48.8416 127.948 33.2446 132.533 16.5775 131.259C10.9977 130.833 5.52283 129.033 0 127.861C0.08258 127.39 0.165161 126.919 0.247734 126.448C3.52402 126.757 6.79467 127.241 10.0776 127.347C26.076 127.867 40.9723 123.3 55.33 116.879C76.4191 107.447 94.863 94.1845 110.27 76.945C121.07 64.8601 129.252 51.3153 131.405 34.8021C132.936 23.0585 123.239 11.203 109.522 8.40202C97.4344 5.93363 85.559 7.51914 73.8028 10.6685C72.5901 10.9933 71.3561 11.2387 70.132 11.5209C69.9682 10.9296 69.8043 10.3383 69.6405 9.74696C79.6637 6.95826 89.5444 3.26801 99.7533 1.65449C108.56 0.262551 117.928 0.0323572 126.719 1.40025C147.935 4.70145 155.439 21.2888 149.676 40.6932C145.086 56.143 136.086 68.6831 124.662 79.8148C106.997 97.0289 86.9983 110.779 64.3558 121.383Z" fill="#141494"/>
<path d="M105.347 10.4753C102.515 10.4462 99.6124 10.0016 96.8639 10.4672C89.1694 11.7705 89.3866 12.3098 89.403 18.7935C89.4623 42.2918 89.3778 65.7906 89.4894 89.2885C89.5029 92.1407 88.9366 94.0845 86.497 95.9002C68.8646 109.024 49.7409 119.019 28.2957 124.276C27.3613 124.505 26.3219 124.306 23.871 124.306C29.5788 122.183 34.0622 120.738 38.3553 118.858C42.7386 116.938 46.9355 114.593 51.2126 112.431C51.8013 112.134 52.3734 111.802 52.9675 111.516C61.7265 107.296 66.3783 101.717 65.7785 90.6025C64.5857 68.5016 65.4453 46.2911 65.3991 24.126C65.3937 21.5092 65.0262 18.8932 64.796 15.8769C77.5518 10.9609 90.9925 8.46389 105.303 9.84491C105.58 10.1835 105.347 10.4753 105.347 10.4753Z" fill="#141494"/>
<path d="M163.121 122.734C165.026 128.21 166.617 133.377 168.486 138.442C170.571 144.096 174.927 146.947 180.904 147.437C178.096 153.299 170.986 156.103 162.855 155.902C147.458 155.521 145.139 146.91 141.584 136.067C137.962 125.02 135.154 113.706 131.944 102.522C130.073 96.0021 126.554 90.6101 120.572 86.7204C123.55 83.8917 126.351 81.0788 129.355 78.5006C129.985 77.9591 131.411 78.0306 132.378 78.2422C143.973 80.778 151.624 87.81 155.411 98.9797C158.042 106.738 160.432 114.577 163.121 122.734Z" fill="#141494"/>
<path d="M65.4356 151.945C65.4273 143.323 65.2969 135.155 65.536 126.998C65.5834 125.379 66.6241 123.117 67.9249 122.312C79.8264 114.946 91.8834 107.831 103.916 100.678C104.266 100.47 104.848 100.652 106.064 101.566C101.738 105.073 97.619 108.89 93.0065 111.968C90.2619 113.799 89.3056 115.672 89.3644 118.834C89.538 128.161 89.1466 137.505 89.5441 146.818C89.7435 151.493 87.7869 153.618 83.6538 154.167C79.24 154.754 74.7746 155.288 70.3414 155.219C68.6945 155.194 67.075 153.394 65.4356 151.945Z" fill="#141494"/>
<path d="M133.9 73.7962C142.25 62.5956 150.069 51.1725 152.676 36.9865C154.369 27.7794 153.748 19.1221 148.508 10.6956C148.569 10.2489 148.754 10.0912 148.754 10.0912C161.246 18.4469 163.96 30.3167 162.065 42.9038C159.673 58.7869 149.562 68.4774 134.718 74.2393C134.216 74.113 133.9 73.7962 133.9 73.7962Z" fill="#141494"/>
<path d="M105.695 10.0363C107.186 10.1775 108.562 10.4658 109.939 10.7542C109.924 10.9414 109.909 11.1286 109.894 11.3158C108.52 11.2377 107.146 11.1595 105.56 10.7784C105.347 10.4753 105.58 10.1835 105.695 10.0363Z" fill="#141494"/>
<path d="M111.353 95.3148C111.98 94.64 112.608 93.9651 113.235 93.2903C113.464 93.4518 113.693 93.6134 113.923 93.7749C113.45 94.3793 112.978 94.9838 112.089 95.5814C111.672 95.5745 111.353 95.3148 111.353 95.3148Z" fill="#141494"/>
<path d="M111.823 95.7142C111.357 96.4235 110.74 96.9932 109.784 97.4803C109.444 97.3977 109.415 97.3658 109.415 97.3658C109.88 96.758 110.346 96.1501 111.082 95.4285C111.353 95.3148 111.672 95.5745 111.823 95.7142Z" fill="#141494"/>
<path d="M134.356 74.287C133.998 74.6785 133.5 74.8959 133.002 75.1133C133.149 74.7655 133.295 74.4178 133.671 73.9331C133.9 73.7962 134.216 74.113 134.356 74.287Z" fill="#141494"/>
<path d="M109.459 97.4147C109.083 97.8317 108.706 98.2471 108.28 98.6053C108.242 98.6378 107.894 98.3031 107.69 98.1389C108.038 97.8956 108.386 97.6523 109.074 97.3874C109.415 97.3658 109.444 97.3977 109.459 97.4147Z" fill="#141494"/>
<path d="M148.478 10.3299C148.154 10.2291 147.922 10.0473 147.69 9.86559C147.963 9.80865 148.237 9.75173 148.632 9.893C148.754 10.0912 148.569 10.2489 148.478 10.3299Z" fill="#141494"/>
</svg>
